<svg width="16" height="15" viewBox="0 0 16 15" fill="none" xmlns="http://www.w3.org/2000/svg">
<path d="M0.5625 2.89062C0.246094 2.89062 0 2.64453 0 2.32812V0.921875C0 0.640625 0.246094 0.359375 0.5625 0.359375H15.1875C15.4688 0.359375 15.75 0.640625 15.75 0.921875V2.32812C15.75 2.64453 15.4688 2.89062 15.1875 2.89062H0.5625ZM0.5625 8.51562C0.246094 8.51562 0 8.26953 0 7.95312V6.54688C0 6.26562 0.246094 5.98438 0.5625 5.98438H15.1875C15.4688 5.98438 15.75 6.26562 15.75 6.54688V7.95312C15.75 8.26953 15.4688 8.51562 15.1875 8.51562H0.5625ZM0.5625 14.1406C0.246094 14.1406 0 13.8945 0 13.5781V12.1719C0 11.8906 0.246094 11.6094 0.5625 11.6094H15.1875C15.4688 11.6094 15.75 11.8906 15.75 12.1719V13.5781C15.75 13.8945 15.4688 14.1406 15.1875 14.1406H0.5625Z" fill="#2C2C2C"/>
</svg>
