<svg width="96" height="107" viewBox="0 0 96 107" fill="none" xmlns="http://www.w3.org/2000/svg">
<path d="M40 42C40 40.8954 40.8954 40 42 40H54C55.1046 40 56 40.8954 56 42V65C56 66.1046 55.1046 67 54 67H42C40.8954 67 40 66.1046 40 65V42Z" fill="#349974"/>
<path d="M47.6166 60.2727V47.5455H48.4319V60.2727H47.6166ZM50.167 51.4929C50.114 51.0223 49.8952 50.6577 49.5107 50.3991C49.1263 50.1373 48.6424 50.0064 48.059 50.0064C47.6414 50.0064 47.2802 50.0727 46.9752 50.2053C46.6703 50.3345 46.4333 50.5135 46.2643 50.7422C46.0986 50.9676 46.0157 51.2244 46.0157 51.5128C46.0157 51.7547 46.0721 51.9635 46.1847 52.1392C46.3008 52.3149 46.4516 52.4624 46.6372 52.5817C46.8261 52.6977 47.0283 52.7955 47.2437 52.875C47.4591 52.9512 47.6663 53.0142 47.8651 53.0639L48.8595 53.3224C49.1843 53.402 49.5174 53.5097 49.8588 53.6456C50.2001 53.7815 50.5167 53.9605 50.8083 54.1825C51.1 54.4046 51.3353 54.6797 51.5143 55.0078C51.6966 55.3359 51.7877 55.7287 51.7877 56.1861C51.7877 56.7628 51.6386 57.2749 51.3403 57.7223C51.0453 58.1697 50.6161 58.5227 50.0526 58.7812C49.4925 59.0398 48.8147 59.169 48.0193 59.169C47.257 59.169 46.5974 59.0481 46.0406 58.8061C45.4838 58.5642 45.0479 58.2211 44.733 57.777C44.4182 57.3295 44.2442 56.7992 44.211 56.1861H45.7522C45.782 56.554 45.9014 56.8606 46.1102 57.1058C46.3223 57.3478 46.5924 57.5284 46.9205 57.6477C47.252 57.7637 47.6149 57.8217 48.0093 57.8217C48.4435 57.8217 48.8296 57.7538 49.1677 57.6179C49.5091 57.4787 49.7776 57.2865 49.9731 57.0412C50.1686 56.7926 50.2664 56.5026 50.2664 56.1712C50.2664 55.8696 50.1802 55.6226 50.0079 55.4304C49.8389 55.2382 49.6085 55.0791 49.3169 54.9531C49.0285 54.8272 48.702 54.7161 48.3374 54.62L47.1343 54.2919C46.319 54.0698 45.6727 53.7434 45.1954 53.3125C44.7214 52.8816 44.4845 52.3116 44.4845 51.6023C44.4845 51.0156 44.6436 50.5036 44.9617 50.0661C45.2799 49.6286 45.7108 49.2888 46.2544 49.0469C46.7979 48.8016 47.4111 48.679 48.0938 48.679C48.7832 48.679 49.3914 48.8 49.9184 49.0419C50.4487 49.2839 50.8663 49.617 51.1713 50.0412C51.4762 50.4621 51.6353 50.946 51.6485 51.4929H50.167Z" fill="white"/>
<path d="M42 41H54V39H42V41ZM55 42V65H57V42H55ZM54 66H42V68H54V66ZM41 65V42H39V65H41ZM42 66C41.4477 66 41 65.5523 41 65H39C39 66.6569 40.3431 68 42 68V66ZM55 65C55 65.5523 54.5523 66 54 66V68C55.6569 68 57 66.6569 57 65H55ZM54 41C54.5523 41 55 41.4477 55 42H57C57 40.3431 55.6569 39 54 39V41ZM42 39C40.3431 39 39 40.3431 39 42H41C41 41.4477 41.4477 41 42 41V39Z" fill="white" fill-opacity="0.1"/>
</svg>
