<svg width="13" height="12" viewBox="0 0 13 12" fill="none" xmlns="http://www.w3.org/2000/svg">
<path d="M11.8984 9.97656C12.3555 10.3984 12.3555 11.1367 11.8984 11.5586C11.6875 11.7695 11.4062 11.875 11.125 11.875C10.8086 11.875 10.5273 11.7695 10.3164 11.5586L6.625 7.86719L2.89844 11.5586C2.6875 11.7695 2.40625 11.875 2.125 11.875C1.80859 11.875 1.52734 11.7695 1.31641 11.5586C0.859375 11.1367 0.859375 10.3984 1.31641 9.97656L5.00781 6.25L1.31641 2.55859C0.859375 2.13672 0.859375 1.39844 1.31641 0.976562C1.73828 0.519531 2.47656 0.519531 2.89844 0.976562L6.625 4.66797L10.3164 0.976562C10.7383 0.519531 11.4766 0.519531 11.8984 0.976562C12.3555 1.39844 12.3555 2.13672 11.8984 2.55859L8.20703 6.28516L11.8984 9.97656Z" fill="#2C2C2C"/>
</svg>
